<svg id="Capa_1" enable-background="new 0 0 512 512" height="512" viewBox="0 0 512 512" width="512" xmlns="http://www.w3.org/2000/svg"><g><path d="m497 171.041h-29.822v-25.085c0-34.57-28.125-62.695-62.695-62.695h-100.781c-19.081 0-36.187 8.579-47.695 22.07-11.508-13.491-28.614-22.07-47.695-22.07h-100.783c-34.57 0-62.695 28.125-62.695 62.695v25.085h-29.834c-8.284 0-15 6.716-15 15v202.87c0 8.284 6.716 15 15 15h51v9.827c0 8.284 6.716 15 15 15s15-6.716 15-15v-9.827h320v9.827c0 8.284 6.716 15 15 15s15-6.716 15-15v-9.827h51c8.284 0 15-6.716 15-15v-202.87c0-8.284-6.716-15-15-15zm-399.235 136.447v-29.861h143.242v29.861zm173.241-29.862h143.229v29.861h-143.229zm32.696-164.365h100.782c18.028 0 32.695 14.667 32.695 32.695v32.564c-13.767 8.656-22.943 23.974-22.943 41.403v27.702h-143.23v-101.67c0-18.027 14.667-32.694 32.696-32.694zm-196.173 0h100.782c18.028 0 32.695 14.667 32.695 32.695v101.67h-143.241v-27.703c0-17.423-9.17-32.736-22.93-41.395v-32.572c-.001-18.028 14.666-32.695 32.694-32.695zm374.471 260.651h-50.304c-.232-.011-.461-.035-.696-.035s-.464.024-.696.035h-348.608c-.232-.011-.461-.035-.696-.035s-.464.024-.696.035h-50.304v-172.87h18.882c10.412 0 18.882 8.471 18.882 18.882v102.564c0 8.284 6.716 15 15 15h346.471c8.284 0 15-6.716 15-15v-102.564c0-10.412 8.471-18.883 18.882-18.883h18.883z"/></g></svg>