<svg height="512pt" viewBox="0 -29 512.00029 512" width="512pt" xmlns="http://www.w3.org/2000/svg"><path d="m510.816406 381.328125-20.183594-37.726563c-12.074218-22.558593-38.984374-32.386718-62.601562-22.851562-2.167969.875-4.34375 1.726562-6.523438 2.566406l-44.507812-103.378906v-45.746094c.082031-1.730468 1.40625-23.539062 16.007812-23.539062 10.195313.003906 10.980469 13.730468 10.070313 21.121094-.59375 4.796874 2.328125 9.332031 6.941406 10.773437 0 0 31.898438 9.96875 32 10 6.363281 1.988281 12.980469-2.910156 12.980469-9.546875 0-2.914062 3.136719-12.980469 5.660156-21.070312 5.050782-16.207032 11.339844-36.378907 11.339844-51.929688 0-17.664062-7.648438-33.960938-19.828125-45.851562l6.039063-9.359376c4.675781-7.261718 6.003906-16.1875 3.640624-24.492187-2.351562-8.277344-8.152343-15.140625-15.917968-18.832031-15.320313-7.285156-39.355469-11.464844-65.933594-11.464844-30.359375 0-61.722656 14.5625-86.050781 39.957031-23.164063 24.175781-36.890625 54.769531-39.25 87.042969h-40.699219c-9.855469 0-18.53125 1.253906-26.1875 3.398438-10.453125-16.125-31.925781-42.398438-60.8125-42.398438-79 0-87.792969 61.496094-92.519531 94.535156-.859375 6.019532-1.992188 13.9375-3.261719 17.542969-18.789062 1.050781-31.21484375 12.808594-31.21484375 29.921875 0 17.792969 20.64453175 37 53.99999975 37 36.558594 0 46.785156-35.554688 55-64.121094 7.3125-25.433594 12.644532-40.878906 24.996094-40.878906 1.527344.023438 4.855469 1.191406 8.945312 3.027344-.308593.519531-.609374 1.039062-.898437 1.554687-10.769531 19.050781-11.980469 38.039063-12.027344 38.839844-.011719.191406-.019531.386719-.019531.578125v38.59375l-24.1875 84.324219c-7.871094-2.722657-15.6875-5.65625-23.433594-8.816407-24.515625-10-52.617187.9375-63.980468 24.898438l-17.433594 36.761719c-2.328125 4.914062-.304688 10.789062 4.558594 13.222656 78.171874 39.160156 162.445312 59.015625 250.476562 59.015625 88.035156 0 172.304688-19.855469 250.476562-59.015625 2.414063-1.207031 4.238282-3.339844 5.054688-5.914063.816406-2.570312.558594-5.363281-.714844-7.742187zm-69.25-225.347656c-1.746094 5.597656-3.175781 10.230469-4.25 14.144531l-14.089844-4.40625c-.261718-7.457031-1.976562-18.179688-8.816406-25.921875-5.289062-5.980469-12.691406-9.144531-21.410156-9.144531-27.449219 0-35.546875 28.160156-35.992188 43.046875-.003906.101562-.007812.203125-.007812.300781v48c0 1.359375.277344 2.707031.816406 3.957031l44.847656 104.171875c-10.777343 3.625-21.667968 6.84375-32.65625 9.648438l-34.742187-85.539063c-2.058594-5.0625-7.8125-7.53125-12.902344-5.550781-.261719.101562-25.648437 9.792969-63.363281 10.289062v-43.039062c20.164062-4.453125 35.296875-22.453125 35.296875-43.933594v-25h.703125c17.035156 0 25.6875-14.632812 28.117188-23.28125.078124-.277344.144531-.5625.195312-.847656.027344-.140625 2.988281-14.574219 14.175781-28.828125 15.261719-19.457031 37.976563-29.320313 67.511719-29.320313 25.476562 0 47 20.734376 47 45.273438 0 12.507812-5.785156 31.066406-10.433594 45.980469zm-91.289062 188.367187c-30.796875 6.414063-62.304688 9.652344-94.277344 9.652344-24.546875 0-48.820312-1.90625-72.707031-5.695312l14.398437-77.023438c10.34375 3.050781 27.199219 6.761719 49.5625 7.558594 2.914063.101562 5.828125.160156 8.746094.160156 29.390625 0 52.199219-5.144531 64.238281-8.613281zm-41.890625-290.554687c20.578125-21.476563 46.679687-33.792969 71.613281-33.792969 23.363281 0 44.800781 3.5625 57.347656 9.527344 2.605469 1.238281 4.476563 3.457031 5.269532 6.242187.800781 2.816407.367187 5.71875-1.21875 8.179688l-5.441407 8.445312c-9.324219-4.875-19.875-7.671875-30.957031-7.671875-44.828125 0-70.011719 20.109375-83.25 36.976563-13.011719 16.585937-17.183594 33.277343-17.953125 36.808593-.4375 1.28125-3.167969 8.492188-8.796875 8.492188h-20.238281c2.328125-27.097656 14.0625-52.785156 33.625-73.207031zm-84.089844 93.207031h50v25c0 13.785156-11.214844 25-25 25s-25-11.214844-25-25zm-90.296875-5c-28.300781 0-36.757812 29.40625-44.21875 55.351562-8.882812 30.894532-15.722656 49.648438-35.777344 49.648438-22.324218 0-34-11.066406-34-17 0-6.636719 4.707032-10 14-10 4.398438 0 12.375-1.859375 16.390625-14.300781 1.753907-5.4375 2.742188-12.339844 3.886719-20.332031 4.667969-32.652344 11.0625-77.367188 72.71875-77.367188 17.125 0 32.667969 16.667969 42.125 30.367188-5.207031 3.117187-9.6875 6.6875-13.546875 10.472656-7.261719-3.5625-15.570313-6.839844-21.578125-6.839844zm15.613281 106.757812c.257813-.898437.390625-1.824218.390625-2.757812v-39.648438c.351563-4.539062 5.277344-53.105468 54.292969-58.800781v24.449219c0 21.269531 14.839844 39.128906 34.703125 43.796875v42.550781c-28.472656-2.226562-44.667969-9.367187-44.832031-9.4375-2.796875-1.28125-6.03125-1.207031-8.765625.210938-2.734375 1.417968-4.664063 4.015625-5.230469 7.042968l-16.554687 88.570313c-13.050782-2.660156-25.976563-5.886719-38.753907-9.6875zm106.386719 185.242188c-81.601562 0-159.847656-17.6875-232.730469-52.59375l8.574219-18.078125c26.578125 12.710937 54.304688 23.183594 82.585938 31.160156.890624.25 1.8125.382813 2.730468.382813 4.453125 0 8.402344-2.992188 9.609375-7.28125.730469-2.570313.410157-5.269532-.886719-7.601563-1.3125-2.328125-3.441406-4.019531-6.011718-4.738281-26.75-7.558594-52.992188-17.417969-78.15625-29.371094 8.273437-8.816406 21.375-12.046875 33.109375-7.257812 57.546875 23.476562 118.503906 35.378906 181.175781 35.378906 62.054688 0 122.453125-11.675781 179.515625-34.703125 11.683594-4.714844 24.714844-1.484375 32.976563 7.425781-28.527344 13.410156-58.367188 24.121094-88.882813 31.875-2.578125.660156-4.757813 2.292969-6.128906 4.589844-1.359375 2.292969-1.75 4.980469-1.089844 7.570312 1.128906 4.441407 5.109375 7.542969 9.679687 7.542969.832032 0 1.671876-.113281 2.480469-.3125 32.375-8.230469 64.042969-19.675781 94.285157-34.039062l9.457031 17.671875c-72.757813 34.761718-150.855469 52.378906-232.292969 52.378906zm0 0"/><path d="m157.992188 384.398438c-.652344-.128907-1.3125-.1875-1.960938-.1875-4.75 0-8.871094 3.378906-9.800781 8.050781-1.070313 5.410156 2.449219 10.679687 7.859375 11.757812.652344.121094 1.3125.191407 1.960937.191407 4.75 0 8.871094-3.390626 9.800781-8.050782 1.070313-5.410156-2.449218-10.691406-7.859374-11.761718zm0 0"/><path d="m310.058594 394.429688c-2.078125-1.890626-4.828125-2.808594-7.636719-2.558594-15.320313 1.410156-30.941406 2.128906-46.421875 2.128906-19.808594 0-39.75-1.167969-59.28125-3.480469-.398438-.039062-.796875-.070312-1.1875-.070312-5.0625 0-9.320312 3.800781-9.921875 8.832031-.308594 2.648438.429687 5.269531 2.082031 7.367188 1.660156 2.089843 4.027344 3.421874 6.679688 3.730468 20.308594 2.402344 41.039062 3.621094 61.628906 3.621094 16.101562 0 32.332031-.738281 48.25-2.210938 5.492188-.507812 9.550781-5.378906 9.039062-10.867187-.230468-2.5-1.378906-4.8125-3.230468-6.492187zm0 0"/><path d="m342.992188 386.609375c-.570313 0-1.152344.050781-1.710938.152344-2.628906.449219-4.929688 1.898437-6.472656 4.078125-1.546875 2.179687-2.148438 4.832031-1.6875 7.46875.820312 4.8125 4.960937 8.300781 9.839844 8.300781.570312 0 1.140624-.039063 1.710937-.140625 2.628906-.449219 4.929687-1.898438 6.46875-4.089844 1.539063-2.179687 2.140625-4.828125 1.691406-7.457031-.832031-4.8125-4.972656-8.3125-9.839843-8.3125zm0 0"/><path d="m430 107c0 5.523438-4.476562 10-10 10s-10-4.476562-10-10 4.476562-10 10-10 10 4.476562 10 10zm0 0"/></svg>